<mxfile host="app.diagrams.net" modified="2021-02-22T22:56:15.519Z" agent="5.0 (Windows)" etag="s0RoVBPDvvw9d-pnkcwZ" version="14.4.2" type="github">
  <diagram id="r7BFj4_OtNCC0xo6FBvw" name="Page-1">
    <mxGraphModel dx="834" dy="419" grid="1" gridSize="10" guides="1" tooltips="1" connect="1" arrows="1" fold="1" page="1" pageScale="1" pageWidth="850" pageHeight="1100" math="0" shadow="0">
      <root>
        <mxCell id="0" />
        <mxCell id="1" parent="0" />
        <mxCell id="xfwsTz7-LEhmBCxW-xyN-13" value="Actor" style="shape=umlActor;verticalLabelPosition=bottom;verticalAlign=top;html=1;outlineConnect=0;" parent="1" vertex="1">
          <mxGeometry x="190" y="540" width="30" height="60" as="geometry" />
        </mxCell>
        <mxCell id="xfwsTz7-LEhmBCxW-xyN-14" value="" style="rounded=0;whiteSpace=wrap;html=1;" parent="1" vertex="1">
          <mxGeometry x="320" y="465" width="170" height="315" as="geometry" />
        </mxCell>
        <mxCell id="xfwsTz7-LEhmBCxW-xyN-15" value="Remote Terminal" style="text;html=1;align=center;verticalAlign=middle;resizable=0;points=[];autosize=1;" parent="1" vertex="1">
          <mxGeometry x="343" y="440" width="110" height="20" as="geometry" />
        </mxCell>
        <mxCell id="xfwsTz7-LEhmBCxW-xyN-17" value="&lt;font style=&quot;font-size: 13px&quot;&gt;&lt;span style=&quot;left: 240px ; top: 868.78px ; font-family: monospace ; transform: scalex(1)&quot;&gt;HV Current Range&lt;/span&gt;&lt;/font&gt;" style="ellipse;whiteSpace=wrap;html=1;" parent="1" vertex="1">
          <mxGeometry x="345" y="540" width="120" height="60" as="geometry" />
        </mxCell>
        <mxCell id="xfwsTz7-LEhmBCxW-xyN-18" value="&lt;font style=&quot;font-size: 13px&quot;&gt;&lt;span style=&quot;left: 240px ; top: 868.78px ; font-family: monospace ; transform: scalex(1)&quot;&gt;HV Voltage Range&lt;/span&gt;&lt;/font&gt;" style="ellipse;whiteSpace=wrap;html=1;" parent="1" vertex="1">
          <mxGeometry x="343" y="610" width="120" height="70" as="geometry" />
        </mxCell>
        <mxCell id="xfwsTz7-LEhmBCxW-xyN-20" value="" style="endArrow=classic;html=1;entryX=0;entryY=0.5;entryDx=0;entryDy=0;" parent="1" target="xfwsTz7-LEhmBCxW-xyN-17" edge="1">
          <mxGeometry width="50" height="50" relative="1" as="geometry">
            <mxPoint x="230" y="580" as="sourcePoint" />
            <mxPoint x="280" y="680" as="targetPoint" />
          </mxGeometry>
        </mxCell>
        <mxCell id="xfwsTz7-LEhmBCxW-xyN-21" value="" style="endArrow=classic;html=1;entryX=0;entryY=0.5;entryDx=0;entryDy=0;" parent="1" target="xfwsTz7-LEhmBCxW-xyN-18" edge="1">
          <mxGeometry width="50" height="50" relative="1" as="geometry">
            <mxPoint x="230" y="580" as="sourcePoint" />
            <mxPoint x="230" y="700" as="targetPoint" />
          </mxGeometry>
        </mxCell>
        <mxCell id="xfwsTz7-LEhmBCxW-xyN-22" value="Reset EEPROM" style="ellipse;whiteSpace=wrap;html=1;" parent="1" vertex="1">
          <mxGeometry x="345" y="470" width="120" height="60" as="geometry" />
        </mxCell>
        <mxCell id="xfwsTz7-LEhmBCxW-xyN-23" value="" style="endArrow=classic;html=1;entryX=0;entryY=0.5;entryDx=0;entryDy=0;" parent="1" target="xfwsTz7-LEhmBCxW-xyN-22" edge="1">
          <mxGeometry width="50" height="50" relative="1" as="geometry">
            <mxPoint x="230" y="580" as="sourcePoint" />
            <mxPoint x="338" y="635" as="targetPoint" />
          </mxGeometry>
        </mxCell>
        <mxCell id="OI3ETL9p8kPDZWT4Ec9R-1" value="&lt;font style=&quot;font-size: 13px&quot;&gt;&lt;span style=&quot;left: 240px ; top: 868.78px ; font-family: monospace ; transform: scalex(1)&quot;&gt;HV Temperature Range&lt;/span&gt;&lt;/font&gt;" style="ellipse;whiteSpace=wrap;html=1;" vertex="1" parent="1">
          <mxGeometry x="345" y="700" width="120" height="70" as="geometry" />
        </mxCell>
        <mxCell id="OI3ETL9p8kPDZWT4Ec9R-2" value="" style="endArrow=classic;html=1;entryX=0.017;entryY=0.4;entryDx=0;entryDy=0;entryPerimeter=0;" edge="1" parent="1" target="OI3ETL9p8kPDZWT4Ec9R-1">
          <mxGeometry width="50" height="50" relative="1" as="geometry">
            <mxPoint x="230" y="580" as="sourcePoint" />
            <mxPoint x="328" y="655" as="targetPoint" />
          </mxGeometry>
        </mxCell>
        <mxCell id="OI3ETL9p8kPDZWT4Ec9R-3" value="Actor" style="shape=umlActor;verticalLabelPosition=bottom;verticalAlign=top;html=1;outlineConnect=0;" vertex="1" parent="1">
          <mxGeometry x="580" y="540" width="30" height="60" as="geometry" />
        </mxCell>
        <mxCell id="OI3ETL9p8kPDZWT4Ec9R-4" value="EEPROM" style="text;html=1;align=center;verticalAlign=middle;resizable=0;points=[];autosize=1;" vertex="1" parent="1">
          <mxGeometry x="560" y="510" width="70" height="20" as="geometry" />
        </mxCell>
        <mxCell id="SDguim_wLjepxLBYqAg8-1" value="" style="endArrow=classic;html=1;entryX=1;entryY=0.5;entryDx=0;entryDy=0;exitX=0;exitY=0.3333333333333333;exitDx=0;exitDy=0;exitPerimeter=0;" edge="1" parent="1" source="OI3ETL9p8kPDZWT4Ec9R-3" target="xfwsTz7-LEhmBCxW-xyN-22">
          <mxGeometry width="50" height="50" relative="1" as="geometry">
            <mxPoint x="570" y="570" as="sourcePoint" />
            <mxPoint x="650" y="300" as="targetPoint" />
          </mxGeometry>
        </mxCell>
      </root>
    </mxGraphModel>
  </diagram>
</mxfile>
